<?xml version="1.0" standalone="no"?>
<!DOCTYPE svg PUBLIC "-//W3C//DTD SVG 20010904//EN"
 "http://www.w3.org/TR/2001/REC-SVG-20010904/DTD/svg10.dtd">
<svg version="1.0" xmlns="http://www.w3.org/2000/svg"
 width="500.000000pt" height="500.000000pt" viewBox="0 0 500.000000 500.000000"
 preserveAspectRatio="xMidYMid meet">

<g transform="translate(0.000000,500.000000) scale(0.100000,-0.100000)"
fill="#000000" stroke="none">
<path d="M0 2500 l0 -2500 2500 0 2500 0 0 2500 0 2500 -2500 0 -2500 0 0
-2500z m2998 938 l-3 -483 -470 0 -470 0 -3 470 c-1 259 0 476 3 483 3 9 108
12 475 12 l470 0 -2 -482z m-948 -953 l0 -465 -485 0 -485 0 0 465 0 465 485
0 485 0 0 -465z m1918 173 c-1 -161 -4 -371 -6 -465 l-3 -173 -479 0 -480 0 0
465 0 465 485 0 486 0 -3 -292z m-970 -1126 l2 -482 -472 2 -473 3 -3 470 c-1
259 0 476 3 483 3 10 103 12 472 10 l468 -3 3 -483z"/>
</g>
</svg>
